<svg width="1400" height="980" viewBox="0 0 1400 980" fill="none" xmlns="http://www.w3.org/2000/svg">
  <defs>
    <linearGradient id="bg" x1="180" y1="80" x2="1180" y2="900" gradientUnits="userSpaceOnUse">
      <stop stop-color="#121927"/>
      <stop offset="1" stop-color="#090C13"/>
    </linearGradient>
    <linearGradient id="panel" x1="200" y1="140" x2="1170" y2="840" gradientUnits="userSpaceOnUse">
      <stop stop-color="#1B2333"/>
      <stop offset="1" stop-color="#101521"/>
    </linearGradient>
    <linearGradient id="accent" x1="925" y1="270" x2="1110" y2="745" gradientUnits="userSpaceOnUse">
      <stop stop-color="#C8E5FF"/>
      <stop offset="1" stop-color="#7AB7FF"/>
    </linearGradient>
    <filter id="shadow" x="90" y="74" width="1220" height="844" filterUnits="userSpaceOnUse" color-interpolation-filters="sRGB">
      <feFlood flood-opacity="0" result="BackgroundImageFix"/>
      <feColorMatrix in="SourceAlpha" type="matrix" values="0 0 0 0 0 0 0 0 0 0 0 0 0 0 0 0 0 0 127 0" result="hardAlpha"/>
      <feOffset dy="28"/>
      <feGaussianBlur stdDeviation="35"/>
      <feComposite in2="hardAlpha" operator="out"/>
      <feColorMatrix type="matrix" values="0 0 0 0 0.0117647 0 0 0 0 0.0235294 0 0 0 0 0.0627451 0 0 0 0.52 0"/>
      <feBlend mode="normal" in2="BackgroundImageFix" result="effect1_dropShadow_1_2"/>
      <feBlend mode="normal" in="SourceGraphic" in2="effect1_dropShadow_1_2" result="shape"/>
    </filter>
  </defs>
  <rect width="1400" height="980" rx="48" fill="url(#bg)"/>
  <circle cx="196" cy="156" r="166" fill="#8DC3FF" fill-opacity="0.11"/>
  <circle cx="1145" cy="195" r="156" fill="#8DC3FF" fill-opacity="0.07"/>
  <g filter="url(#shadow)">
    <rect x="160" y="116" width="1080" height="704" rx="36" fill="url(#panel)" stroke="#FFFFFF" stroke-opacity="0.12"/>
    <rect x="160" y="116" width="1080" height="62" rx="36" fill="#0C1018"/>
    <circle cx="206" cy="147" r="8" fill="#FF7C78"/>
    <circle cx="234" cy="147" r="8" fill="#FFCC63"/>
    <circle cx="262" cy="147" r="8" fill="#4FD17B"/>
    <rect x="194" y="214" width="196" height="568" rx="26" fill="#0D121C" stroke="#FFFFFF" stroke-opacity="0.07"/>
    <text x="228" y="265" fill="#F5F7FB" font-family="SF Pro Display, Arial, sans-serif" font-size="32" font-weight="700">Daylens</text>
    <rect x="226" y="308" width="132" height="14" rx="7" fill="#D4E7FF" fill-opacity="0.9"/>
    <rect x="226" y="352" width="118" height="12" rx="6" fill="#7E8CA6"/>
    <rect x="226" y="396" width="148" height="12" rx="6" fill="#7E8CA6"/>
    <rect x="226" y="440" width="126" height="12" rx="6" fill="#7E8CA6"/>
    <rect x="226" y="484" width="138" height="12" rx="6" fill="#7E8CA6"/>
    <rect x="226" y="606" width="94" height="12" rx="6" fill="#7E8CA6"/>
    <rect x="418" y="214" width="510" height="568" rx="26" fill="#0E131D" stroke="#FFFFFF" stroke-opacity="0.07"/>
    <text x="458" y="268" fill="#F5F7FB" font-family="SF Pro Display, Arial, sans-serif" font-size="34" font-weight="700">Today</text>
    <text x="458" y="305" fill="#8EA2C0" font-family="SF Pro Display, Arial, sans-serif" font-size="22" font-weight="500">A calm view of your day across apps, websites, and focus patterns.</text>
    <rect x="456" y="346" width="190" height="122" rx="22" fill="#121927" stroke="#FFFFFF" stroke-opacity="0.06"/>
    <text x="482" y="390" fill="#B7D5FF" font-family="SF Pro Display, Arial, sans-serif" font-size="18" font-weight="600">Focus score</text>
    <text x="482" y="445" fill="#F5F7FB" font-family="SF Pro Display, Arial, sans-serif" font-size="46" font-weight="700">72%</text>
    <rect x="666" y="346" width="224" height="122" rx="22" fill="#121927" stroke="#FFFFFF" stroke-opacity="0.06"/>
    <text x="692" y="390" fill="#B7D5FF" font-family="SF Pro Display, Arial, sans-serif" font-size="18" font-weight="600">Top app</text>
    <text x="692" y="445" fill="#F5F7FB" font-family="SF Pro Display, Arial, sans-serif" font-size="30" font-weight="700">Xcode</text>
    <text x="692" y="476" fill="#8EA2C0" font-family="SF Pro Display, Arial, sans-serif" font-size="18" font-weight="500">3h 18m today</text>
    <rect x="456" y="494" width="434" height="110" rx="22" fill="#121927" stroke="#FFFFFF" stroke-opacity="0.06"/>
    <text x="482" y="538" fill="#B7D5FF" font-family="SF Pro Display, Arial, sans-serif" font-size="18" font-weight="600">Daily timeline</text>
    <rect x="482" y="566" width="102" height="12" rx="6" fill="#8DC3FF"/>
    <rect x="593" y="566" width="72" height="12" rx="6" fill="#4FD17B"/>
    <rect x="674" y="566" width="124" height="12" rx="6" fill="#F7AE57"/>
    <rect x="807" y="566" width="58" height="12" rx="6" fill="#D67EFF"/>
    <rect x="456" y="626" width="434" height="128" rx="22" fill="#121927" stroke="#FFFFFF" stroke-opacity="0.06"/>
    <text x="482" y="670" fill="#B7D5FF" font-family="SF Pro Display, Arial, sans-serif" font-size="18" font-weight="600">AI summary</text>
    <rect x="482" y="697" width="350" height="10" rx="5" fill="#8EA2C0"/>
    <rect x="482" y="722" width="316" height="10" rx="5" fill="#6F809D"/>
    <rect x="482" y="747" width="282" height="10" rx="5" fill="#6F809D"/>
    <rect x="948" y="214" width="252" height="568" rx="26" fill="#0D121C" stroke="#FFFFFF" stroke-opacity="0.07"/>
    <rect x="980" y="248" width="188" height="158" rx="24" fill="url(#accent)"/>
    <text x="1008" y="312" fill="#06111E" font-family="SF Pro Display, Arial, sans-serif" font-size="18" font-weight="700">Activity pulse</text>
    <text x="1008" y="366" fill="#06111E" font-family="SF Pro Display, Arial, sans-serif" font-size="48" font-weight="700">9h 41m</text>
    <text x="1008" y="395" fill="#163459" font-family="SF Pro Display, Arial, sans-serif" font-size="18" font-weight="600">captured today</text>
    <text x="980" y="466" fill="#B7D5FF" font-family="SF Pro Display, Arial, sans-serif" font-size="18" font-weight="600">Top websites</text>
    <rect x="980" y="490" width="188" height="16" rx="8" fill="#2E3E57"/>
    <rect x="980" y="525" width="148" height="16" rx="8" fill="#253449"/>
    <rect x="980" y="560" width="122" height="16" rx="8" fill="#253449"/>
    <text x="980" y="634" fill="#B7D5FF" font-family="SF Pro Display, Arial, sans-serif" font-size="18" font-weight="600">Permissions</text>
    <rect x="980" y="658" width="188" height="18" rx="9" fill="#1A2435"/>
    <rect x="984" y="662" width="126" height="10" rx="5" fill="#4FD17B"/>
    <rect x="980" y="695" width="188" height="18" rx="9" fill="#1A2435"/>
    <rect x="984" y="699" width="168" height="10" rx="5" fill="#8DC3FF"/>
  </g>
</svg>
